<svg xmlns="http://www.w3.org/2000/svg" id="svg5" version="1.1" viewBox="0 0 12.7 12.7" height="48" width="48">
  
  <defs id="defs2"></defs>
  <g id="layer1">
    <g transform="matrix(0.84976996,0,0,0.84976996,0.13234542,0.32309328)" id="g27146">
      <path id="path26893" d="M 6.493171,14.412819 C 4.065432,14.118615 1.952448,12.651729 0.84619305,10.49254 c -0.557776,-1.0886659 -0.809936,-2.1262719 -0.811898,-3.3408509 -8.62e-4,-0.554918 0.0256,-0.856106 0.120881,-1.37408 0.448551,-2.438432 2.17924995,-4.536749 4.49262495,-5.44690004 0.894516,-0.351932 1.706748,-0.504884 2.681113,-0.504884 1.168709,0 2.196382,0.236819 3.209787,0.739665 0.749658,0.371979 1.327745,0.78775204 1.92782,1.38653104 0.691213,0.689725 1.175505,1.390848 1.546818,2.239373 0.789276,1.803667 0.823727,3.835967 0.09601,5.664232 -0.650571,1.6344629 -1.891046,2.9946089 -3.465488,3.7998109 -0.801927,0.410122 -1.605352,0.65295 -2.510811,0.758867 -0.400761,0.04688 -1.247108,0.04611 -1.639882,-0.0015 z" style="fill:#b3b3b3;stroke-width:0.0251749"></path>
      <g transform="translate(-68.126467,-49.314025)" style="font-size:10.5833px;line-height:1.25;stroke-width:0.264583" id="text2541" aria-label="W">
        <path id="path26384" style="font-weight:bold;font-family:Amiri;-inkscape-font-specification:'Amiri Bold'" d="m 71.833816,55.251598 q 0.328082,0 0.740831,-0.01058 0.423332,-0.02117 0.719664,-0.05292 0.03175,0.04233 0.03175,0.1905 0.01058,0.137583 -0.03175,0.190499 -0.0635,0 -0.222249,0.02117 -0.148167,0.01058 -0.275166,0.07408 -0.127,0.05292 -0.127,0.179916 0,0.127 0.07408,0.338666 0.08467,0.211666 0.169333,0.433915 0.169333,0.476248 0.349249,0.973663 0.179916,0.486832 0.328082,0.910164 0.148166,0.412749 0.243416,0.677331 0.09525,0.254 0.09525,0.254 0,0 0.08467,-0.232833 0.08467,-0.232833 0.211666,-0.613831 0.137583,-0.380999 0.296333,-0.825498 0.158749,-0.455082 0.317499,-0.888997 0.158749,-0.444499 0.275165,-0.783164 0.127,-0.349249 0.1905,-0.518582 0.05292,-0.148166 0.137583,-0.264582 0.09525,-0.116417 0.179916,-0.116417 0.07408,0 0.126999,0.15875 0.201083,0.518582 0.433916,1.12183 0.243416,0.603248 0.476248,1.195913 0.232833,0.592664 0.423332,1.079496 0.201083,0.486832 0.317499,0.783164 0.116416,0.285749 0.116416,0.285749 0,0 0.0635,-0.201082 0.0635,-0.211666 0.169333,-0.539749 0.105833,-0.338665 0.222249,-0.719664 0.127,-0.391582 0.243416,-0.751414 0.116417,-0.359832 0.201083,-0.613832 0.08467,-0.264582 0.105833,-0.349249 0.0635,-0.201082 0.137583,-0.423332 0.07408,-0.232832 0.07408,-0.402165 0,-0.09525 -0.179916,-0.148166 -0.169333,-0.05292 -0.359832,-0.07408 -0.1905,-0.02117 -0.264583,-0.02117 -0.04233,-0.05292 -0.04233,-0.190499 0.01058,-0.148166 0.04233,-0.1905 0.370416,0.03175 0.613832,0.05292 0.253999,0.01058 0.613831,0.01058 0.338665,0 0.582081,-0.02117 0.254,-0.03175 0.571499,-0.04233 0.03175,0.04233 0.03175,0.1905 0.01058,0.137583 -0.03175,0.190499 -0.0635,0 -0.211666,0.01058 -0.148167,0.01058 -0.296333,0.05292 -0.148166,0.03175 -0.211666,0.116416 -0.116416,0.15875 -0.232832,0.370416 -0.105833,0.211666 -0.1905,0.486832 -0.243416,0.730247 -0.444498,1.344079 -0.201083,0.603248 -0.402166,1.174746 -0.190499,0.571498 -0.402165,1.174746 -0.201083,0.592665 -0.444499,1.312329 -0.07408,0.1905 -0.201082,0.359832 -0.116417,0.169333 -0.211666,0.169333 -0.07408,0 -0.116417,-0.05292 -0.04233,-0.04233 -0.08467,-0.09525 L 75.156966,57.70692 q 0,0 -0.08467,0.253999 -0.08467,0.253999 -0.232832,0.677331 -0.137583,0.423332 -0.317499,0.93133 -0.169333,0.507999 -0.349249,1.037164 -0.179916,0.518582 -0.328083,0.96308 -0.02117,0.05292 -0.08467,0.201083 -0.0635,0.137583 -0.137583,0.253999 -0.07408,0.116416 -0.137583,0.116416 -0.07408,0 -0.116416,-0.05292 -0.04233,-0.04233 -0.08467,-0.09525 L 71.42105,56.754419 q -0.07408,-0.232833 -0.179916,-0.455082 -0.105833,-0.232833 -0.179916,-0.391582 -0.0635,-0.137583 -0.211666,-0.201083 -0.137583,-0.07408 -0.275166,-0.105833 -0.137583,-0.03175 -0.211666,-0.03175 -0.04233,-0.05292 -0.03175,-0.190499 0,-0.148166 0.03175,-0.1905 0.306916,0.03175 0.719664,0.05292 0.423332,0.01058 0.751415,0.01058 z"></path>
      </g>
      <g transform="translate(-68.126467,-49.314025)" style="font-size:10.5833px;line-height:1.25;stroke-width:0.264583" id="text14743" aria-label="T">
        <path id="path25028" style="font-weight:bold;font-family:Amiri;-inkscape-font-specification:Amiri" d="m 80.042396,53.911923 c 0.246945,-3.01e-4 0.433916,-0.01411 0.560915,-0.04233 0.134055,-0.03528 0.236361,-0.06703 0.306916,-0.09525 0.07055,-0.03528 0.137583,-0.05292 0.201083,-0.05292 0.04233,0 0.06703,0.0035 0.07408,0.01058 0.01411,0 0.03175,0.0071 0.05292,0.02117 l 0.304315,2.170501 c -0.01411,0.01411 -0.05645,0.03175 -0.127,0.05292 -0.0635,0.01411 -0.119944,0.02117 -0.169332,0.02117 -0.0635,0 -0.09878,-0.01764 -0.105833,-0.05292 -0.03528,-0.225777 -0.105835,-0.437443 -0.211666,-0.634998 -0.105833,-0.197555 -0.236361,-0.356305 -0.391582,-0.476249 -0.155222,-0.126999 -0.321027,-0.190499 -0.497416,-0.190499 H 76.17821 l 0.0084,4.104218 c -0.43769,-1.466007 -0.647926,-0.694977 -1.484308,-1.212968 l 0.02602,-2.89125 -4.114987,0.01157 c -0.176389,4.96e-4 -0.342194,0.0635 -0.497415,0.190499 -0.155222,0.119944 -0.285749,0.278694 -0.391582,0.476249 -0.105833,0.197555 -0.176389,0.409221 -0.211666,0.634998 -0.0071,0.03528 -0.04233,0.05292 -0.105833,0.05292 -0.04939,0 -0.109359,-0.0071 -0.179916,-0.02117 -0.0635,-0.02117 -0.102306,-0.03881 -0.116417,-0.05292 l 0.246017,-2.170501 c 0.02117,-0.01411 0.03528,-0.02117 0.04233,-0.02117 0.01411,-0.0071 0.04234,-0.01058 0.08467,-0.01058 0.0635,0 0.130527,0.01764 0.201082,0.05292 0.07055,0.02822 0.169333,0.05997 0.296333,0.09525 0.134055,0.02822 0.324554,0.04263 0.571498,0.04233 z"></path>
      </g>
      <g transform="translate(-67.671803,-49.141453)" style="font-size:10.5833px;line-height:1.25;fill:#ffffff;stroke-width:0.264583" id="text2541-8" aria-label="W">
        <path id="path26384-9" style="font-weight:bold;font-family:Amiri;-inkscape-font-specification:'Amiri Bold';fill:#ffffff" d="m 71.833816,55.251598 q 0.328082,0 0.740831,-0.01058 0.423332,-0.02117 0.719664,-0.05292 0.03175,0.04233 0.03175,0.1905 0.01058,0.137583 -0.03175,0.190499 -0.0635,0 -0.222249,0.02117 -0.148167,0.01058 -0.275166,0.07408 -0.127,0.05292 -0.127,0.179916 0,0.127 0.07408,0.338666 0.08467,0.211666 0.169333,0.433915 0.169333,0.476248 0.349249,0.973663 0.179916,0.486832 0.328082,0.910164 0.148166,0.412749 0.243416,0.677331 0.09525,0.254 0.09525,0.254 0,0 0.08467,-0.232833 0.08467,-0.232833 0.211666,-0.613831 0.137583,-0.380999 0.296333,-0.825498 0.158749,-0.455082 0.317499,-0.888997 0.158749,-0.444499 0.275165,-0.783164 0.127,-0.349249 0.1905,-0.518582 0.05292,-0.148166 0.137583,-0.264582 0.09525,-0.116417 0.179916,-0.116417 0.07408,0 0.126999,0.15875 0.201083,0.518582 0.433916,1.12183 0.243416,0.603248 0.476248,1.195913 0.232833,0.592664 0.423332,1.079496 0.201083,0.486832 0.317499,0.783164 0.116416,0.285749 0.116416,0.285749 0,0 0.0635,-0.201082 0.0635,-0.211666 0.169333,-0.539749 0.105833,-0.338665 0.222249,-0.719664 0.127,-0.391582 0.243416,-0.751414 0.116417,-0.359832 0.201083,-0.613832 0.08467,-0.264582 0.105833,-0.349249 0.0635,-0.201082 0.137583,-0.423332 0.07408,-0.232832 0.07408,-0.402165 0,-0.09525 -0.179916,-0.148166 -0.169333,-0.05292 -0.359832,-0.07408 -0.1905,-0.02117 -0.264583,-0.02117 -0.04233,-0.05292 -0.04233,-0.190499 0.01058,-0.148166 0.04233,-0.1905 0.370416,0.03175 0.613832,0.05292 0.253999,0.01058 0.613831,0.01058 0.338665,0 0.582081,-0.02117 0.254,-0.03175 0.571499,-0.04233 0.03175,0.04233 0.03175,0.1905 0.01058,0.137583 -0.03175,0.190499 -0.0635,0 -0.211666,0.01058 -0.148167,0.01058 -0.296333,0.05292 -0.148166,0.03175 -0.211666,0.116416 -0.116416,0.15875 -0.232832,0.370416 -0.105833,0.211666 -0.1905,0.486832 -0.243416,0.730247 -0.444498,1.344079 -0.201083,0.603248 -0.402166,1.174746 -0.190499,0.571498 -0.402165,1.174746 -0.201083,0.592665 -0.444499,1.312329 -0.07408,0.1905 -0.201082,0.359832 -0.116417,0.169333 -0.211666,0.169333 -0.07408,0 -0.116417,-0.05292 -0.04233,-0.04233 -0.08467,-0.09525 L 75.156966,57.70692 q 0,0 -0.08467,0.253999 -0.08467,0.253999 -0.232832,0.677331 -0.137583,0.423332 -0.317499,0.93133 -0.169333,0.507999 -0.349249,1.037164 -0.179916,0.518582 -0.328083,0.96308 -0.02117,0.05292 -0.08467,0.201083 -0.0635,0.137583 -0.137583,0.253999 -0.07408,0.116416 -0.137583,0.116416 -0.07408,0 -0.116416,-0.05292 -0.04233,-0.04233 -0.08467,-0.09525 L 71.42105,56.754419 q -0.07408,-0.232833 -0.179916,-0.455082 -0.105833,-0.232833 -0.179916,-0.391582 -0.0635,-0.137583 -0.211666,-0.201083 -0.137583,-0.07408 -0.275166,-0.105833 -0.137583,-0.03175 -0.211666,-0.03175 -0.04233,-0.05292 -0.03175,-0.190499 0,-0.148166 0.03175,-0.1905 0.306916,0.03175 0.719664,0.05292 0.423332,0.01058 0.751415,0.01058 z"></path>
      </g>
      <g transform="translate(-67.671803,-49.141453)" style="font-size:10.5833px;line-height:1.25;fill:#ffffff;stroke-width:0.264583" id="text14743-7" aria-label="T">
        <path id="path25028-3" style="font-weight:bold;font-family:Amiri;-inkscape-font-specification:Amiri;fill:#ffffff" d="m 80.042396,53.911923 c 0.246945,-3.01e-4 0.433916,-0.01411 0.560915,-0.04233 0.134055,-0.03528 0.236361,-0.06703 0.306916,-0.09525 0.07055,-0.03528 0.137583,-0.05292 0.201083,-0.05292 0.04233,0 0.06703,0.0035 0.07408,0.01058 0.01411,0 0.03175,0.0071 0.05292,0.02117 l 0.304315,2.170501 c -0.01411,0.01411 -0.05645,0.03175 -0.127,0.05292 -0.0635,0.01411 -0.119944,0.02117 -0.169332,0.02117 -0.0635,0 -0.09878,-0.01764 -0.105833,-0.05292 -0.03528,-0.225777 -0.105835,-0.437443 -0.211666,-0.634998 -0.105833,-0.197555 -0.236361,-0.356305 -0.391582,-0.476249 -0.155222,-0.126999 -0.321027,-0.190499 -0.497416,-0.190499 H 76.17821 l 0.0084,4.104218 c -0.43769,-1.466007 -0.647926,-0.694977 -1.484308,-1.212968 l 0.02602,-2.89125 -4.114987,0.01157 c -0.176389,4.96e-4 -0.342194,0.0635 -0.497415,0.190499 -0.155222,0.119944 -0.285749,0.278694 -0.391582,0.476249 -0.105833,0.197555 -0.176389,0.409221 -0.211666,0.634998 -0.0071,0.03528 -0.04233,0.05292 -0.105833,0.05292 -0.04939,0 -0.109359,-0.0071 -0.179916,-0.02117 -0.0635,-0.02117 -0.102306,-0.03881 -0.116417,-0.05292 l 0.246017,-2.170501 c 0.02117,-0.01411 0.03528,-0.02117 0.04233,-0.02117 0.01411,-0.0071 0.04234,-0.01058 0.08467,-0.01058 0.0635,0 0.130527,0.01764 0.201082,0.05292 0.07055,0.02822 0.169333,0.05997 0.296333,0.09525 0.134055,0.02822 0.324554,0.04263 0.571498,0.04233 z"></path>
      </g>
    </g>
  </g>
</svg>
